<svg id="Layer_1" data-name="Layer 1" xmlns="http://www.w3.org/2000/svg" xmlns:xlink="http://www.w3.org/1999/xlink" width="19.27cm" height="15.98cm" viewBox="0 0 546.22 453.08"><defs><style>.cls-1{fill:none;}.cls-2{fill:#55e0d4;}.cls-3{fill:#e3fcf9;}.cls-4{fill:#f2b5bc;}.cls-5{fill:#2067ff;}.cls-6{fill:#1a127a;}.cls-7{fill:#f48d8c;}.cls-8{fill:#050505;}.cls-9{fill:#06015f;}.cls-10{fill:#ffd974;}.cls-11{fill:#ffce61;}.cls-12{fill:#39b2a6;}.cls-13{fill:#fca1ba;}.cls-14{fill:#5f5bf4;}.cls-15{fill:#00ccbe;}.cls-16{fill:#ff4c8b;}.cls-17{fill:#e75639;}.cls-18{fill:#1e1e77;}.cls-19{fill:#c7c7f9;}.cls-20{clip-path:url(#clip-path);}.cls-21{fill:#4340c5;}.cls-22{clip-path:url(#clip-path-2);}.cls-23{fill:#fff;}.cls-24{clip-path:url(#clip-path-3);}.cls-25{fill:#4b83d1;}.cls-26{fill:#ff004e;}.cls-27{fill:#3f39f5;}.cls-28{fill:#fca4a4;}.cls-29{fill:#f92d7b;}.cls-30{fill:#fed001;}.cls-31{fill:#ffbcac;}.cls-32{fill:#ff9695;}</style><clipPath id="clip-path"><rect class="cls-1" x="50.01" y="342.7" width="39.86" height="37.44"/></clipPath><clipPath id="clip-path-2"><path class="cls-1" d="M520.57,376.49a181.66,181.66,0,0,1-16.1,23.72H369V376.49Z"/></clipPath><clipPath id="clip-path-3"><rect class="cls-1" x="457.93" y="332.92" width="58.29" height="43.57"/></clipPath></defs><title>FAQ</title><g id="_" data-name="?"><path class="cls-2" d="M198.07,229,233,224.76s-8.23-37.06,22.55-39.64,32.69,36.32,18.86,52.14c-10.81,12.37-53,34-44.15,107.14l33.23-4s-12.84-37.8,31.42-79.6c21.63-20.43,23.25-40,21.37-59.92-1.66-17.53-10.3-36.22-36-46.76C222.32,130.35,185.69,190.58,198.07,229Z"/><circle class="cls-2" cx="250.26" cy="372.88" r="18.53" transform="translate(-43.01 32.79) rotate(-6.9)"/></g><path class="cls-3" d="M520.17,377.55a181.65,181.65,0,0,1-16.1,23.72c-25.93,32.37-62.44,55.09-95.94,47.88-78.78-17-101.79-48.76-229.91-9.44q-4.13,1.27-8.4,2.63c-79.37,25.37-133.06,3-156.48-37.43a96.87,96.87,0,0,1-9.76-23.72l-.27-1.05A109.84,109.84,0,0,1,0,350.33a81.15,81.15,0,0,1,26.39-57.58c12.63-11.64,26.22-35.95,12.6-84-22.28-78.61,73.11-93.7,93.65-93,26.62.84,86.57,2.88,125.65-67.06C305.38-35.52,433.5,1,441.55,71.27s-1.24,145.75,71.8,192.8C549,287,544,335.68,520.17,377.55Z"/><g id="boy2"><g id="leg_right" data-name="leg right"><path class="cls-4" d="M349.24,331.1v12.45l-5.87.48-1.44-11.76S348.59,329,349.24,331.1Z"/><path class="cls-5" d="M331.09,262.49c3.06,22.51,10.27,69.68,10.27,69.68s5.87,2.48,7.88-1.1a35.48,35.48,0,0,0,2.05-6.82l.09-.38c2.35-10.2,5.09-28,3.46-36-1.27-6.24.43-16.75,2.1-24.56,1.23-5.74,2.44-10,2.46-10.1h0l-3.47-30.13A95,95,0,0,1,329,219.36,266,266,0,0,0,331.09,262.49Z"/><path class="cls-6" d="M349.24,331.07l2.05-6.82.09-.38c2.35-10.2,5.09-28,3.46-36-1.27-6.24.43-16.75,2.1-24.56-1.23-11-2.64-20.53-2.62-20.61-.14.09-4.94,17.23-3.15,45.17C353,316,349.21,322.72,349.24,331.07Z"/><path id="shose" class="cls-6" d="M350.25,337.71s-1.66-.83-1.83,3.05-3.05,2.38-3.05,2.38.06-3.55-1.89-3.83-3.72-1.11-3.6,1.61,0,2.16,0,2.16-.77,3.38-5.76,5.38-7,3.44-4.16,5.38,7,1.92,12.34,1.35c0,0,1.83-.94,2.78-1.37,1.2-.54,1.32,1.7,5.13,1.7,2.59,0,4.36-4,.76-12.89A9.39,9.39,0,0,1,350.25,337.71Z"/></g><g id="leg_left" data-name="leg left"><path class="cls-4" d="M383.22,330.6l2.1,12.24-5.7,1.46L376.21,333S382.22,328.61,383.22,330.6Z"/><path id="shose-2" data-name="shose" class="cls-6" d="M385.94,337.71s-1.66-.83-1.83,3.05-3.05,2.38-3.05,2.38.06-3.55-1.89-3.83-3.72-1.11-3.6,1.61,0,2.16,0,2.16-.77,3.38-5.76,5.38-7,3.44-4.16,5.38,7,1.92,12.34,1.35c0,0,1.83-.94,2.78-1.37,1.2-.54,1.32,1.7,5.13,1.7,2.59,0,4.36-4,.76-12.89A9.39,9.39,0,0,1,385.94,337.71Z"/><path class="cls-5" d="M351.93,222.59s.26,28.06,5.13,51.43,18.18,60,18.18,60c6.19,1.72,8.87-2.46,8.87-2.46l.08-.84a281.12,281.12,0,0,0,.54-48.88c-.72-9.58-.91-19.83.47-27.37a187.54,187.54,0,0,0,2.85-35.95c-1.45.51-2.92,1-4.39,1.37C367.93,224.21,351.93,222.59,351.93,222.59Z"/><path id="shadow" class="cls-6" d="M380.79,294.62c2.33,10.53,3.32,37,3.32,37l.08-.84a281.12,281.12,0,0,0,.54-48.88c-.72-9.58-.91-19.83.47-27.37a187.54,187.54,0,0,0,2.85-35.95c-1.45.51-2.92,1-4.39,1.37-.39,5.72-4,23.71-4.85,33.87C378.19,261.54,378.47,284.08,380.79,294.62Z"/></g><g id="hand_right" data-name="hand right"><path class="cls-4" d="M288,194.95v10c13.92.63,24.21-3.3,31.6-8.39h0a47.18,47.18,0,0,0,3.95-3q.93-.8,1.79-1.61l.11-.1.45-.44q.58-.57,1.12-1.13c1-1.09,2-2.18,2.83-3.23a46.44,46.44,0,0,0,5.45-8.48l0-1.56a41.15,41.15,0,0,1-4.68-1.45q-.83-.31-1.61-.65l-.06,0c-9.55-4.14-13.31-10.51-13.94-11.69l-.06-.12,0,0h0l0,.07-.16.49C308.35,182.79,296.67,191.32,288,194.95Z"/><path class="cls-7" d="M315,163s3.52,8.5,8,12.69.79,16.73-3.35,20.93A43.41,43.41,0,0,0,331,185.32c4.37-6.77-2.67-12.57-2.67-12.57Z"/></g><g id="head"><g id="neck"><path class="cls-4" d="M344.37,138.88s12.55,11.77,28-1.11a13.27,13.27,0,0,1-10.68-9l-6.89.51-1.95.15-.72.05a2.11,2.11,0,0,1-.05.35c-.22,1.06-1.39,4.44-7.71,9.06Z"/><path class="cls-7" d="M344.37,138.88l0,0a2.15,2.15,0,0,0,.3.26,7.12,7.12,0,0,0,.71-.26c3.31-1.91,7.18-4.65,9.36-7.8a2.51,2.51,0,0,0,0-1.84l0-.05c-.29-.43-1.3-.08-1.92.2l-.41.2-.36.21C351.86,130.88,350.68,134.26,344.37,138.88Z"/></g><g id="head-2" data-name="head"><path class="cls-4" d="M354.14,131a7.88,7.88,0,0,0,8.52-3.4c-1.71-1.82,6.19-8.29,6.19-8.29l-2.45-6.84-7.31-5.07h-10.2s-.16.31-.43.85c-1.93,4-9.2,20.88,3.73,22.45C352.85,130.78,353.49,130.88,354.14,131Z"/><path class="cls-7" d="M348.37,107.31a11.53,11.53,0,0,0,4,2.45,61.12,61.12,0,0,0,6.28,1.69,2.31,2.31,0,0,1,1.49.85c.44.73,0,1.65-.11,2.5a3.06,3.06,0,0,0,.82,2.46,19,19,0,0,0,1.91-4.24,2,2,0,0,0-.47-2.52,17.86,17.86,0,0,0-5.24-4H348.8S348.63,106.76,348.37,107.31Z"/><path class="cls-7" d="M350.31,114c-.19.43-.39.85-.58,1.27s-.38.84-.53,1.26a3.65,3.65,0,0,0-.28,1.28.75.75,0,0,0,.21.55,1.24,1.24,0,0,0,.6.27,1.09,1.09,0,0,1-.71-.13.86.86,0,0,1-.15-.13l-.12-.16a1.19,1.19,0,0,1-.12-.37,3,3,0,0,1,.22-1.44,7.43,7.43,0,0,1,.63-1.27A7.09,7.09,0,0,1,350.31,114Z"/><path class="cls-7" d="M351.45,121.74a1.77,1.77,0,0,1-.7.78,1.58,1.58,0,0,1-1.08.21,2.08,2.08,0,0,1-1-.49,4.74,4.74,0,0,1-.35-.39c-.1-.15-.19-.29-.27-.44.15.1.27.21.4.31l.4.28a2.69,2.69,0,0,0,.85.36,1.67,1.67,0,0,0,.88-.1A3.19,3.19,0,0,0,351.45,121.74Z"/><path d="M355.83,114.37c-.39-.14-.72-.3-1.06-.4a3.51,3.51,0,0,0-.52-.12,4.28,4.28,0,0,0-.57,0,1.05,1.05,0,0,1,.57-.27,1.46,1.46,0,0,1,.63.05,1.76,1.76,0,0,1,.55.29A1.4,1.4,0,0,1,355.83,114.37Z"/><path d="M349.53,112.52l-.43-.17-.39-.14-.39-.12-.45-.12a1,1,0,0,1,1-.12,1.22,1.22,0,0,1,.43.25A.92.92,0,0,1,349.53,112.52Z"/><ellipse id="eye" class="cls-8" cx="353.89" cy="116.14" rx="0.46" ry="0.63"/><ellipse id="eye-2" data-name="eye" class="cls-8" cx="348.08" cy="114.04" rx="0.46" ry="0.63"/></g><g id="hair"><path id="hair-2" data-name="hair" class="cls-9" d="M361.46,113.11c-1.66,5,.5,6.66,1.27,5.79a1.36,1.36,0,0,1,1.67-.24c.54.31.93,1,.74,2.26a2.8,2.8,0,0,1-2.7,2.51,7.35,7.35,0,0,0,.59,8.22c-.76-5.19.48-6.29,5.5-9.67s9.56-12.16,1.55-14.38a9.53,9.53,0,0,1-1.46-.53c-5.75-2.65-3.43-12.51-11.84-15.51-9-3.22-14.84,2.64-11.12,12.75C348.08,110.94,363.12,108.09,361.46,113.11Z"/><path id="hair-3" data-name="hair" class="cls-9" d="M363,131.66c-.76-5.19.48-6.29,5.5-9.67s9.56-12.16,1.55-14.38a9.53,9.53,0,0,1-1.46-.53c0,1.16.19,1.76-1.39,2.47a4.25,4.25,0,0,0-2.37,4.46c.22,1.28,1,2.64.38,3.77a3.47,3.47,0,0,1-.83.88c.54.31.93,1,.74,2.26a2.8,2.8,0,0,1-2.7,2.51A7.35,7.35,0,0,0,363,131.66Z"/></g></g><g id="body"><path class="cls-10" d="M329,175a266.24,266.24,0,0,0,0,44.33s28.31,9.33,59-.83c0,0,1.25-21.14-7.68-41.21,0,0,10.66-3.55,23.37,3.09,0,0,2-28.72-31.38-42.64,0,0-14.78,10.81-27.65,1.38l-.33-.25h0s-4.81.28-13.28,4.91C322.39,148.56,315,163,315,163S318.52,170.56,329,175Z"/><path class="cls-11" d="M329,175l8-7-8.95,30.86S328.31,181.68,329,175Z"/><polygon class="cls-11" points="380.38 177.32 376.05 167.27 376.46 203.05 379.54 220.9 388.06 218.53 388.06 208.89 380.38 177.32"/></g><g id="hand_lefft" data-name="hand lefft"><path class="cls-4" d="M354.23,238.65c5.22-2.47,3-4,9.95-7.2s42.06-25.79,39.57-51l-.28-.16c-1.77-1-11.57-6-23.08-2.92a37.4,37.4,0,0,1,.19,3.74c.07,9-2,32-23.8,44.7a10.55,10.55,0,0,1-3.95,1.18c-2.47.28-2.82,3.53-5.57,3.95,0,0,1.55,2,5.78-.42a8.19,8.19,0,0,1-7.55,2.61C340.47,232.37,349,241.12,354.23,238.65Z"/><path class="cls-7" d="M380.38,177.32a37.4,37.4,0,0,1,.19,3.74h0c3.37-2,7.5-2.28,11.42-2s7.63,1.11,11.47,1.15C401.69,179.26,391.89,174.24,380.38,177.32Z"/><path class="cls-7" d="M344.73,235.09a5.2,5.2,0,0,0,1.13.09c.37,0,.75,0,1.12-.07s.74-.09,1.12-.13l.57-.08c.19,0,.38-.05.58-.06-.17.09-.35.17-.53.24l-.55.19-.57.14c-.19,0-.38.07-.58.08l-.59,0a5,5,0,0,1-.59,0A2.49,2.49,0,0,1,344.73,235.09Z"/><path class="cls-7" d="M347,237.21a8.08,8.08,0,0,0,1.08-.13c.35-.07.7-.15,1-.24s.68-.21,1-.32l.51-.18c.17-.06.34-.13.53-.18-.14.12-.29.23-.44.34s-.31.2-.48.28a5.26,5.26,0,0,1-1,.41,4.65,4.65,0,0,1-1.11.17A2.79,2.79,0,0,1,347,237.21Z"/><path class="cls-7" d="M350,238.67a9.48,9.48,0,0,0,2-.66c.16-.07.31-.16.47-.24s.31-.18.45-.28c.3-.19.57-.42.87-.65a3.08,3.08,0,0,1-.69.89,3.61,3.61,0,0,1-.45.35,4.33,4.33,0,0,1-.5.27,3.93,3.93,0,0,1-1.09.33A3.16,3.16,0,0,1,350,238.67Z"/></g></g><g id="_2" data-name="?"><path class="cls-12" d="M188.11,229l45-5.54s-8.23-37.06,22.55-39.64,32.69,36.32,18.86,52.14c-10.81,12.37-53,34-44.15,107.14l33.23-4s-14.29-31.93,27.19-70.58c27.29-25.43,27.48-49.07,25.6-68.95C314.69,182,306.49,162.12,280.6,152,221.61,129,177.05,180.52,188.11,229Z"/><circle class="cls-12" cx="250.33" cy="371.57" r="18.53" transform="translate(-42.85 32.79) rotate(-6.9)"/></g><g id="_3" data-name="?"><path class="cls-2" d="M188.11,229l34.94-4.23s-8.23-37.06,22.55-39.64,32.69,36.32,18.86,52.14c-10.81,12.37-53,34-44.15,107.14l33.23-4s-12.84-37.8,31.42-79.6c21.63-20.43,23.25-40,21.37-59.92-1.66-17.53-8.53-36.53-33.82-48.06C216.91,127.46,175.73,190.58,188.11,229Z"/><circle class="cls-2" cx="240.3" cy="372.88" r="18.53" transform="translate(-43.08 31.59) rotate(-6.9)"/></g><g id="light"><path class="cls-13" d="M487,304.46a.49.49,0,0,1-.11-1l1.89-.45-2.55.15a.48.48,0,0,1-.51-.4.49.49,0,0,1,.34-.55l2.71-.83-1.36.14a.49.49,0,0,1-.21-.94l.66-.23-2.16.35a.49.49,0,0,1-.25-.93l1.26-.48a1.3,1.3,0,0,1-.51-.33,1.29,1.29,0,0,1-.34-1.14c.38-2,.19-3.52-.55-4.51-.44-.59-1.1-1.29-1.85-2.1-2.29-2.46-5.42-5.83-5.38-9.33.06-4.91,2.83-7.2,5.39-7.71a7.26,7.26,0,0,1,8,4.59c1.43,3.34.37,7.58-.4,10.68a18.74,18.74,0,0,0-.61,3,7.9,7.9,0,0,0,1.39,4.23.48.48,0,0,1,0,.51l1.11-.28a.49.49,0,0,1,.29.92L490.28,299l2.72-.44a.49.49,0,0,1,.24.94l-1.87.67,2.34-.25a.49.49,0,0,1,.19.95L490.2,302l4-.23a.48.48,0,0,1,.51.41.49.49,0,0,1-.37.54l-7.28,1.72Zm-2.25-29.41a5.57,5.57,0,0,0-1.08.11c-3.35.66-4.58,3.93-4.61,6.77,0,3.11,2.94,6.32,5.12,8.66.77.83,1.44,1.55,1.92,2.18.91,1.22,1.16,3,.73,5.28a.32.32,0,0,0,.08.29.33.33,0,0,0,.26.1l4-1a.48.48,0,0,1-.18-.18,8.67,8.67,0,0,1-1.53-4.77,19.08,19.08,0,0,1,.64-3.22c.74-3,1.75-7,.45-10.07A6.46,6.46,0,0,0,484.74,275.05Z"/><path class="cls-13" d="M485.5,284.45a1.35,1.35,0,0,1-.94-.37c-.84-.79-.76-2.61-.74-2.82a.49.49,0,1,1,1,.06c0,.12,0,.26,0,.43a3.46,3.46,0,0,1,.09-.37c.09-.29.27-.9.78-.89s.65.49.84,1.29a1,1,0,0,1,.87.39c.38.54,0,1.3-.1,1.55-.21.44-.49.5-.7.48h-.08a1.35,1.35,0,0,1-.77.25Z"/></g><path class="cls-13" d="M483.4,273.45a.49.49,0,0,1-.47-.38l-.32-1.38a.49.49,0,0,1,.95-.22l.32,1.38a.49.49,0,0,1-.36.58Z"/><path class="cls-13" d="M479.13,275.43a.48.48,0,0,1-.34-.14L476.47,273a.49.49,0,0,1,.68-.69l2.32,2.29a.49.49,0,0,1-.34.83Z"/><path class="cls-13" d="M477,279.74h-.1l-1.59-.35a.49.49,0,0,1,.21-.95l1.59.35a.49.49,0,0,1-.1,1Z"/><path class="cls-13" d="M474,285a.49.49,0,0,1-.17-.94l3.06-1.12a.49.49,0,0,1,.33.91L474.21,285A.49.49,0,0,1,474,285Z"/><path class="cls-13" d="M487.58,273.59l-.15,0a.49.49,0,0,1-.31-.61l1-3.1a.49.49,0,1,1,.92.3l-1,3.1A.49.49,0,0,1,487.58,273.59Z"/><path class="cls-13" d="M491.08,275.86a.49.49,0,0,1-.32-.85l1.24-1.06a.49.49,0,1,1,.63.74l-1.24,1.06A.48.48,0,0,1,491.08,275.86Z"/><path class="cls-13" d="M492.9,279.63a.49.49,0,0,1-.08-1l3.22-.53a.49.49,0,0,1,.16,1l-3.22.53Z"/><g id="light-2" data-name="light"><path class="cls-14" d="M71.13,240.68l-.21-.8,2.65-.7-3.34.28a.42.42,0,0,1-.17-.81l3.38-1.13-2.07.28a.42.42,0,0,1-.21-.8l1.37-.53-2.9.56a.42.42,0,0,1-.24-.79l1.45-.59a1.23,1.23,0,0,1-1-1.41c.32-2,.09-3.56-.69-4.55-.46-.58-1.13-1.27-1.91-2.06-2.35-2.39-5.56-5.65-5.61-9.13-.07-4.87,2.6-7.22,5.13-7.79a7.19,7.19,0,0,1,8,4.34c1.51,3.28.57,7.54-.11,10.65a18.75,18.75,0,0,0-.53,3.06A8,8,0,0,0,75.58,233l-.7.44a8.61,8.61,0,0,1-1.65-4.69,19.07,19.07,0,0,1,.55-3.22c.66-3,1.56-7.1.17-10.12a6.36,6.36,0,0,0-7.07-3.87c-3.37.76-4.52,4.1-4.48,7,0,3.14,3.13,6.27,5.37,8.56.79.81,1.48,1.51,2,2.12.94,1.18,1.23,2.93.86,5.2a.39.39,0,0,0,.11.34.4.4,0,0,0,.33.11l5.71-1.61A.42.42,0,0,1,77,234l-3.52,1.45,3.38-.65a.42.42,0,0,1,.23.8l-2.4.93,2.91-.39a.42.42,0,0,1,.19.81l-4.21,1.41,4.62-.39a.42.42,0,0,1,.14.82Z"/><path class="cls-14" d="M68.95,220.73a1.28,1.28,0,0,1-.87-.33c-.84-.74-.8-2.54-.8-2.74l.83,0a3.29,3.29,0,0,0,.52,2.09l0,0a2.21,2.21,0,0,1-.32-2c.08-.3.22-.86.69-.86h0c.51,0,.65.59.92,1.64h0l0-.38a.92.92,0,0,1,.82.33c.25.34.23.82-.07,1.48-.18.41-.43.47-.61.46l-.11,0a1.18,1.18,0,0,1-.75.28Zm.12-2.27a1.21,1.21,0,0,0,.19.75l-.12-.46Z"/></g><rect class="cls-14" x="65.98" y="207.98" width="0.83" height="1.42" transform="translate(-50.17 23.29) rotate(-14.51)"/><rect class="cls-14" x="60.76" y="208.73" width="0.83" height="3.26" transform="translate(-134.25 111.34) rotate(-46.91)"/><rect class="cls-14" x="59.14" y="214.88" width="0.83" height="1.63" transform="translate(-163.44 234.24) rotate(-79.32)"/><rect class="cls-14" x="57.42" y="220.2" width="3.26" height="0.83" transform="translate(-77.46 37.53) rotate(-21.72)"/><rect class="cls-14" x="69.59" y="207.42" width="3.26" height="0.83" transform="translate(-148.31 216.51) rotate(-73.35)"/><rect class="cls-14" x="74.11" y="210.62" width="1.63" height="0.83" transform="translate(-122.27 104.91) rotate(-42.17)"/><rect class="cls-14" x="76.21" y="214.57" width="3.26" height="0.83" transform="translate(-39.6 18.81) rotate(-11)"/><path class="cls-15" d="M398.63,79.21a1.53,1.53,0,0,1-1.46-2c.08-.26,2.09-6.28,6.68-7.11,6.23-1.12,6.65-4.43,6.79-5.52a4,4,0,0,0-2.36-3.78c-1.68-.78-3.51-.21-5.15,1.59a1.53,1.53,0,1,1-2.26-2.06c2.54-2.79,5.79-3.65,8.7-2.31A7,7,0,0,1,413.68,65c-.38,3-2.31,6.89-9.28,8.14-2.31.42-3.89,3.78-4.31,5A1.53,1.53,0,0,1,398.63,79.21Z"/><circle class="cls-15" cx="396.65" cy="82.68" r="1.92" transform="translate(102.42 361.25) rotate(-55.21)"/><path class="cls-16" d="M257.24,220.9a1.53,1.53,0,0,1-1.46-1.09c-.08-.26-1.86-6.36,1.43-9.65,4.48-4.48,2.94-7.43,2.43-8.41a4,4,0,0,0-4.1-1.75c-1.82.32-3,1.83-3.32,4.25a1.53,1.53,0,0,1-3-.4c.49-3.74,2.67-6.3,5.82-6.86a7,7,0,0,1,7.34,3.35c2.55,4.89-.21,9.22-3,12a5.33,5.33,0,0,0-1.08,3.92,12.55,12.55,0,0,0,.42,2.68,1.53,1.53,0,0,1-1.47,2Z"/><circle class="cls-16" cx="258.47" cy="224.6" r="1.92"/><path class="cls-17" d="M436.18,248.4a1.53,1.53,0,0,1-.72-1.68c.06-.26,1.57-6.44,6.07-7.64,6.12-1.64,6.26-5,6.31-6.06a4,4,0,0,0-2.67-3.57c-1.74-.63-3.51.08-5,2a1.53,1.53,0,1,1-2.43-1.87c2.3-3,5.47-4.12,8.48-3a7,7,0,0,1,4.68,6.58c-.24,5.51-4.8,7.88-8.58,8.89a5.33,5.33,0,0,0-2.9,2.85,12.55,12.55,0,0,0-1,2.53,1.53,1.53,0,0,1-2.26,1Z"/><circle class="cls-17" cx="435.4" cy="252.21" r="1.92" transform="translate(-0.87 502.91) rotate(-59.97)"/><rect class="cls-14" x="268.86" y="62.88" width="96" height="23.72" transform="translate(8.92 180.37) rotate(-32.21)"/><circle class="cls-18" cx="323.72" cy="42.15" r="12.16"/><rect class="cls-14" x="350.31" y="0.26" width="0.85" height="41.14" transform="translate(-0.28 5.33) rotate(-0.87)"/><rect class="cls-19" x="89.46" y="359.16" width="111.28" height="20.96"/><path class="cls-13" d="M178.22,380.13V439.7q-4.13,1.27-8.4,2.63c-79.37,25.37-133.06,3-156.48-37.43a96.87,96.87,0,0,1-9.76-23.72l-.27-1.05Z"/><rect class="cls-15" x="26.19" y="332.3" width="23.82" height="47.84"/><rect class="cls-14" x="50.01" y="342.7" width="39.86" height="37.44"/><g class="cls-20"><rect class="cls-18" x="13.42" y="343.77" width="72.91" height="0.22" transform="translate(-242.65 156.34) rotate(-49.08)"/><rect class="cls-18" x="16.84" y="346.38" width="72.91" height="0.22" transform="translate(-243.45 159.83) rotate(-49.08)"/><rect class="cls-18" x="20.26" y="349" width="72.91" height="0.22" transform="translate(-244.24 163.31) rotate(-49.08)"/><rect class="cls-18" x="23.67" y="351.61" width="72.91" height="0.22" transform="translate(-245.04 166.8) rotate(-49.08)"/><rect class="cls-18" x="27.09" y="354.23" width="72.91" height="0.22" transform="translate(-245.84 170.28) rotate(-49.08)"/><rect class="cls-18" x="30.51" y="356.85" width="72.91" height="0.22" transform="translate(-246.63 173.77) rotate(-49.08)"/><rect class="cls-18" x="33.93" y="359.46" width="72.91" height="0.22" transform="translate(-247.43 177.25) rotate(-49.08)"/><rect class="cls-18" x="37.35" y="362.08" width="72.91" height="0.22" transform="translate(-248.23 180.74) rotate(-49.08)"/><rect class="cls-18" x="40.77" y="364.69" width="72.91" height="0.22" transform="translate(-249.02 184.23) rotate(-49.08)"/><rect class="cls-18" x="44.18" y="367.31" width="72.91" height="0.22" transform="translate(-249.82 187.71) rotate(-49.08)"/><rect class="cls-18" x="47.6" y="369.92" width="72.91" height="0.22" transform="translate(-250.62 191.2) rotate(-49.08)"/><rect class="cls-18" x="51.02" y="372.54" width="72.91" height="0.22" transform="translate(-251.41 194.68) rotate(-49.08)"/><rect class="cls-18" x="54.44" y="375.15" width="72.91" height="0.22" transform="translate(-252.21 198.17) rotate(-49.08)"/><rect class="cls-18" x="57.86" y="377.77" width="72.91" height="0.22" transform="translate(-253.01 201.65) rotate(-49.08)"/></g><rect class="cls-21" x="305.16" y="355.53" width="152.79" height="20.96"/><circle class="cls-13" cx="435.47" cy="332.92" r="22.6"/><path class="cls-19" d="M520.57,376.49a181.66,181.66,0,0,1-16.1,23.72H369V376.49Z"/><g class="cls-22"><path class="cls-23" d="M452.41,398.42a34.8,34.8,0,1,1,34.8-34.8A34.84,34.84,0,0,1,452.41,398.42Zm0-69.33a34.53,34.53,0,1,0,34.53,34.53A34.57,34.57,0,0,0,452.41,329.09Z"/><path class="cls-23" d="M452.41,394a30.36,30.36,0,1,1,30.36-30.36A30.39,30.39,0,0,1,452.41,394Zm0-60.43a30.08,30.08,0,1,0,30.08,30.08A30.11,30.11,0,0,0,452.41,333.54Z"/><path class="cls-23" d="M452.41,389.42a25.8,25.8,0,1,1,25.8-25.8A25.83,25.83,0,0,1,452.41,389.42Zm0-51.33a25.53,25.53,0,1,0,25.53,25.53A25.56,25.56,0,0,0,452.41,338.09Z"/><path class="cls-23" d="M452.41,384.87a21.25,21.25,0,1,1,21.25-21.25A21.28,21.28,0,0,1,452.41,384.87Zm0-42.23a21,21,0,1,0,21,21A21,21,0,0,0,452.41,342.64Z"/><path class="cls-23" d="M452.41,379.79a16.18,16.18,0,1,1,16.18-16.18A16.2,16.2,0,0,1,452.41,379.79Zm0-32.09a15.9,15.9,0,1,0,15.9,15.9A15.92,15.92,0,0,0,452.41,347.71Z"/><path class="cls-23" d="M399.74,434.27a29,29,0,1,1,29-29A29,29,0,0,1,399.74,434.27Zm0-57.61a28.65,28.65,0,1,0,28.65,28.65A28.68,28.68,0,0,0,399.74,376.65Z"/><path class="cls-23" d="M399.74,430.57A25.27,25.27,0,1,1,425,405.3,25.3,25.3,0,0,1,399.74,430.57Zm0-50.22a25,25,0,1,0,25,25A25,25,0,0,0,399.74,380.35Z"/><path class="cls-23" d="M399.74,426.79a21.49,21.49,0,1,1,21.49-21.49A21.51,21.51,0,0,1,399.74,426.79Zm0-42.66a21.17,21.17,0,1,0,21.17,21.17A21.19,21.19,0,0,0,399.74,384.13Z"/><path class="cls-23" d="M399.74,423a17.71,17.71,0,1,1,17.71-17.71A17.73,17.73,0,0,1,399.74,423Zm0-35.09a17.39,17.39,0,1,0,17.39,17.39A17.41,17.41,0,0,0,399.74,387.91Z"/><path class="cls-23" d="M399.74,418.79a13.49,13.49,0,1,1,13.49-13.49A13.51,13.51,0,0,1,399.74,418.79Zm0-26.66a13.17,13.17,0,1,0,13.17,13.17A13.19,13.19,0,0,0,399.74,392.13Z"/><path class="cls-23" d="M517.25,402.08a29,29,0,1,1,29-29A29,29,0,0,1,517.25,402.08Zm0-57.61a28.65,28.65,0,1,0,28.65,28.65A28.68,28.68,0,0,0,517.25,344.46Z"/><path class="cls-23" d="M517.25,398.38a25.27,25.27,0,1,1,25.27-25.27A25.3,25.3,0,0,1,517.25,398.38Zm0-50.22a25,25,0,1,0,25,25A25,25,0,0,0,517.25,348.16Z"/><path class="cls-23" d="M517.25,394.6a21.49,21.49,0,1,1,21.49-21.49A21.51,21.51,0,0,1,517.25,394.6Zm0-42.66a21.17,21.17,0,1,0,21.17,21.17A21.19,21.19,0,0,0,517.25,351.94Z"/><path class="cls-23" d="M517.25,390.82A17.71,17.71,0,1,1,535,373.11,17.73,17.73,0,0,1,517.25,390.82Zm0-35.09a17.39,17.39,0,1,0,17.39,17.39A17.41,17.41,0,0,0,517.25,355.72Z"/><path class="cls-23" d="M517.25,386.6a13.49,13.49,0,1,1,13.49-13.49A13.51,13.51,0,0,1,517.25,386.6Zm0-26.66a13.17,13.17,0,1,0,13.17,13.17A13.19,13.19,0,0,0,517.25,359.94Z"/></g><rect class="cls-2" x="457.93" y="332.92" width="58.29" height="43.57"/><g class="cls-24"><rect class="cls-25" x="418.22" y="329.14" width="90.78" height="0.28" transform="translate(-84.59 480.39) rotate(-50.8)"/><rect class="cls-25" x="422.32" y="332.48" width="90.78" height="0.28" transform="translate(-85.67 484.8) rotate(-50.8)"/><rect class="cls-25" x="426.42" y="335.82" width="90.78" height="0.28" transform="translate(-86.75 489.21) rotate(-50.8)"/><rect class="cls-25" x="430.52" y="339.17" width="90.78" height="0.28" transform="translate(-87.83 493.62) rotate(-50.8)"/><rect class="cls-25" x="434.62" y="342.51" width="90.78" height="0.28" transform="translate(-88.91 498.02) rotate(-50.8)"/><rect class="cls-25" x="438.73" y="345.85" width="90.78" height="0.28" transform="translate(-89.99 502.43) rotate(-50.8)"/><rect class="cls-25" x="442.83" y="349.19" width="90.78" height="0.28" transform="translate(-91.07 506.84) rotate(-50.8)"/><rect class="cls-25" x="446.93" y="352.53" width="90.78" height="0.28" transform="translate(-92.15 511.25) rotate(-50.8)"/><rect class="cls-25" x="451.03" y="355.87" width="90.78" height="0.28" transform="translate(-93.23 515.66) rotate(-50.8)"/><rect class="cls-25" x="455.13" y="359.22" width="90.78" height="0.28" transform="translate(-94.31 520.07) rotate(-50.8)"/><rect class="cls-25" x="459.24" y="362.56" width="90.78" height="0.28" transform="translate(-95.39 524.47) rotate(-50.8)"/><rect class="cls-25" x="463.34" y="365.9" width="90.78" height="0.28" transform="translate(-96.47 528.88) rotate(-50.8)"/><rect class="cls-25" x="467.44" y="369.24" width="90.78" height="0.28" transform="translate(-97.56 533.29) rotate(-50.8)"/><rect class="cls-25" x="471.54" y="372.58" width="90.78" height="0.28" transform="translate(-98.64 537.7) rotate(-50.8)"/></g><g id="boy2-2" data-name="boy2"><g id="leg_left-2" data-name="leg left"><path class="cls-4" d="M70.86,314.25,67,320.34l3.61,3.87,6.74-4S72.75,313.44,70.86,314.25Z"/><path class="cls-18" d="M120,231.21a72.33,72.33,0,0,1-7.08-2.69c-1.29-.57-2.57-1.19-3.83-1.86A173.85,173.85,0,0,0,106.69,260c.22,7.1-1.38,16.46-3.37,25.15,0,0-26.19,11.05-32.46,29.1,0,0,4.51,4.21,6.53,5.92,0,0,18.75-4.59,35.49-15.78h0c8.49-5.68,16.21-13.26,20.19-23.23,8.2-20.55,8.55-45.76,8.55-45.76A94,94,0,0,1,120,231.21Z"/><path class="cls-9" d="M141.62,235.4s-.34,25.21-8.55,45.76c-4,10-11.7,17.55-20.19,23.23.36-.33,18.76-17.25,16.1-26.52s4.38-13.06-3.2-22.72c-5.28-6.72-5.91-17.82-5.81-23.95A94,94,0,0,0,141.62,235.4Z"/><g id="shoe"><path class="cls-26" d="M72.61,322.88s.5-.28.49-.7.93-.58,1.06-.41a31.49,31.49,0,0,1,.15,3.29Z"/><path class="cls-27" d="M61.51,320.1s4.24-2.72,7.14-2.86c0,0,.68.23,0,1.47s-.54,3.3,3.46,4.35,2,4.53,4.07,10.52,2.53,6.74,2,7.8l-.79,1s-5.06-.9-7.86-6.84S61.51,320.1,61.51,320.1Z"/><path class="cls-23" d="M72.5,340.59l-.15-.15a.35.35,0,0,0,.05-.47l0,0a.35.35,0,0,0-.5,0h0l-.66-.75.14-.12a.35.35,0,0,0,.06-.47l0,0a.35.35,0,0,0-.5,0l-.14.12c-.94-1.13-2-2.45-3-3.82l.12-.09a.35.35,0,1,0-.41-.57l-.14.1-1.17-1.58a.35.35,0,0,0-.41-.57l-.86-1.19.17-.12a.35.35,0,0,0-.41-.57l-.17.12-1.26-1.78.15-.11a.35.35,0,0,0-.41-.57l-.15.11c-1.24-1.78-2.06-3-2.06-3s.08-.46-.8-1.33l-.3-2.62s1-1,1.5-.79l.38-.15a19.57,19.57,0,0,1,4.21,5.41c2.16,3.8,4.35,9.68,6.79,12.39s4.17,4.34,4.46,4.34,1.2-.86,1.2-.86a.43.43,0,0,1,.08.28.42.42,0,0,1-.12.26C77.51,342.56,75.65,343.81,72.5,340.59Z"/><path class="cls-28" d="M68.65,317.24s.36-.52.54.05a4.19,4.19,0,0,1-.39,2.54c-.37.6,0,1.29,2.3,2.28s2.54,1.66,2.54,1.66l-3-.73s-3.45-1.94-3.2-4.32Z"/><path class="cls-26" d="M66.78,317.64a8.92,8.92,0,0,1,.27,3.76s4.5,4.39,6.56,4.28c0,0,1,2.82,2.56,8s2.32,5.43,2,6.38c0,0-.69.07-1.48-.91s-1.5-1.81-1.5-1.81-.63-1.35-1.42-1.62-2.77-1-.83-1.93.12-1.41-1.07-2-1.89-1.58-4.06-6.33-2.37-5.8-3.57-6.06c0,0-.61-.21-.49-.48a.22.22,0,0,1,.08-.09A15.3,15.3,0,0,1,66.78,317.64Z"/><rect class="cls-26" x="60.71" y="325.93" width="5.18" height="0.84" rx="0.3" ry="0.3" transform="translate(291.48 84.6) rotate(54.32)"/></g></g><g id="leg_right-2" data-name="leg right"><path class="cls-4" d="M147.8,343.73l1,6.44,6.27-.24,1.19-10.59S148.4,341.75,147.8,343.73Z"/><path class="cls-18" d="M124.67,233.36s19.43,5.29,38.28,2.87c0,0,4.62,23.93,3.06,45.83-1.57,22.11-10,59.52-10,59.52s-4.76,3.2-8.18,2.16c-11.21-27.51-4.41-51.45-4.41-51.45S126.16,266.06,124.67,233.36Z"/><g id="shoe-2" data-name="shoe"><path class="cls-26" d="M154.94,348.42a.94.94,0,0,0-.26-.81c-.34-.25.1-1.09.31-1.09a31.49,31.49,0,0,1,2.72,1.87Z"/><path class="cls-27" d="M146,355.6s.38-5,2-7.42c0,0,.59-.4,1.18.88s2.31,2.42,5.56-.14,4.81,1.14,10.84,3.09,6.91,2,7.43,3.11l.3,1.22s-3.77,3.49-10.19,2.16S146,355.6,146,355.6Z"/><path class="cls-23" d="M169,359.18l-.21,0a.35.35,0,0,0-.34-.33h0a.35.35,0,0,0-.33.38v0l-1,.08v-.19a.35.35,0,0,0-.34-.33h0a.35.35,0,0,0-.33.38v.18c-1.47.07-3.15.1-4.86.1v-.15a.35.35,0,1,0-.7,0v.17l-2,0a.35.35,0,0,0-.7,0l-1.47,0v-.21a.35.35,0,0,0-.71,0v.2l-2.18-.07v-.19a.35.35,0,0,0-.71,0v.18c-2.17-.08-3.63-.15-3.63-.15s-.32-.34-1.54-.17l-2.27-1.34s-.16-1.39.27-1.67l.11-.39a19.57,19.57,0,0,1,6.86-.1c4.34.56,10.35,2.35,14,2s6-.71,6.15-.94a4.41,4.41,0,0,0,0-1.48.43.43,0,0,1,.27.11.42.42,0,0,1,.14.25C173.6,356.36,173.48,358.6,169,359.18Z"/><path class="cls-28" d="M148.06,348.18s-.2-.6.37-.39a4.19,4.19,0,0,1,1.79,1.84c.26.66,1,.77,3.21-.47s2.85-1,2.85-1l-2.39,2s-3.62,1.59-5.37,0Z"/><path class="cls-26" d="M147.25,349.92a8.92,8.92,0,0,1,3.17,2s6.21-.95,7.37-2.66c0,0,2.86.88,7.89,2.75s5.74,1.42,6.3,2.24c0,0-.36.6-1.62.64S168,355,168,355a3.51,3.51,0,0,0-2.14.16c-.69.47-2.46,1.61-2-.5s-1.05-.95-2.21-.33-2.4.55-7.5-.58-6.06-1.6-7-.8c0,0-.54.36-.67.1a.22.22,0,0,1,0-.12A15.3,15.3,0,0,1,147.25,349.92Z"/><rect class="cls-26" x="149.51" y="357.52" width="5.18" height="0.84" rx="0.3" ry="0.3" transform="translate(8.56 -3.52) rotate(1.36)"/></g></g><path class="cls-16" d="M153.36,136.22s-47.87,17.49-44.41,91c0,0,23.34,12.68,54,9,0,0,16.82-55.49.71-89.38C163.66,146.84,157.27,149.29,153.36,136.22Z"/><path class="cls-29" d="M169.5,202.95s-3.59,3.57-10.24,2-10.29,3-14-2.16-9.1-12.21-7.83-24.25c0,0,7.72,10.75,19.71,17.2S169.5,202.95,169.5,202.95Z"/><path class="cls-30" d="M167.76,184.33q-1.29-1.58-2.55-3.35l-.12-.16Z"/><path class="cls-31" d="M219.44,188.15c-3.95,2.67-3.6,1.27-9.29,4.05A61.21,61.21,0,0,1,192,202.38c-21.79,7.3-34.86-6.62-34.86-6.62a60.94,60.94,0,0,1,1.66-9c3-11.12,7.95-12.56,7.95-12.56,8.34,10.26,10.93,16.41,15.61,18.29.68,1.3,20.06-4.17,26.82-8a8.7,8.7,0,0,0,2.49-2.31c1.24-1.64,3.69-.52,5.15-2.31,0,0,.75,1.93-2.73,3.94a6.76,6.76,0,0,0,5-4.27C220.75,175.73,223.38,185.47,219.44,188.15Z"/><path class="cls-32" d="M192,202.38c-21.79,7.3-34.86-6.62-34.86-6.62a60.94,60.94,0,0,1,1.66-9C158.9,187.07,164.13,207.14,192,202.38Z"/><path class="cls-31" d="M176.11,125.94c-1.26,1-2.68,3.22-1.82,7.75,1.24,6.49-7.48,5.7-9,6.86s-1.6,6.14-1.6,6.29h0c-7.45,1.81-10.3-10.62-10.3-10.62a9.14,9.14,0,0,0,3-3.63c-1.15-3.06.4-6.65.4-6.65-1.89-6.88,6.56-9.93,10.36-11.59s4.15,4,5.2,7.45a4.55,4.55,0,0,0,3.57,3.08A.6.6,0,0,1,176.11,125.94Z"/><path class="cls-32" d="M171.07,117.07s-2.92,4-7.24,4-5.49-.45-4.48,2.89c0,0-3,6-3,8.64l-1-10.83,4.05-6.53,8.11-2.43Z"/><path class="cls-18" d="M156.33,132.6s-4.31-8.79-2.53-11.53c0,0-2.81-5.92,1.11-10.22,0,0,4.73-7.66,12.13-6,0,0,7.9-.12,8.72-3.89s10.93,11.41-4.7,16.08c0,0-5.31,3.93-8,2.79s-5.93.6-3.72,4.1A13.58,13.58,0,0,0,156.33,132.6Z"/><path class="cls-32" d="M165.26,140.55c-1.53,1.14-1.6,6.14-1.6,6.29h0c-3.11-2.13-4.46-10.69-4.46-10.69C159.88,138.71,165.26,140.55,165.26,140.55Z"/><path class="cls-29" d="M166.77,174.21l-9.65-15.36s3.2,3.29,4.72,2.75,1.87,5,5,6.85,3.49,6,3.49,6l.25,4.6Z"/><path class="cls-16" d="M166.77,174.21,157.21,161s-24.35,20,0,34.73Z"/></g></svg>